# xmcd CD database file
#
# Track frame offsets:
#	150
#	14622
#	30299
#	45345
#	73883
#	92259
#	113794
#	129765
#	151329
#	174261
#	189093
#	204284
#
# Disc length: 2969 seconds
#
# Revision: 0
# Processed by: cddbd v1.5.2PL0 Copyright (c) Steve Scherf et al.
# Submitted via: CDex 1.51
#
DISCID=820b970c
DTITLE=Paul Cowley - Rural
DYEAR=2016
DGENRE=Blues
TTITLE0=Write Me A Few Of Your Lines
TTITLE1=Monday Morning Blues
TTITLE2=Jitterbug Swing
TTITLE3=Not What They Seem
TTITLE4=Pay Day
TTITLE5=Death Letter
TTITLE6=Candyman
TTITLE7=I Like A Girl
TTITLE8=Franklin Nashville
TTITLE9=You Gotta Move
TTITLE10=Ar The End Of The Day
TTITLE11=I Can`t Be Satisfied
EXTD=YEAR: 2016
EXTT0=
EXTT1=
EXTT2=
EXTT3=
EXTT4=
EXTT5=
EXTT6=
EXTT7=
EXTT8=
EXTT9=
EXTT10=
EXTT11=
PLAYORDER=
